<?xml version="1.0" encoding="UTF-8" standalone="no"?>
<svg
   xmlns:dc="http://purl.org/dc/elements/1.1/"
   xmlns:cc="http://creativecommons.org/ns#"
   xmlns:rdf="http://www.w3.org/1999/02/22-rdf-syntax-ns#"
   xmlns:svg="http://www.w3.org/2000/svg"
   xmlns="http://www.w3.org/2000/svg"
   xmlns:sodipodi="http://sodipodi.sourceforge.net/DTD/sodipodi-0.dtd"
   xmlns:inkscape="http://www.inkscape.org/namespaces/inkscape"
   width="27.656292mm"
   height="25.919167mm"
   viewBox="0 0 27.656292 25.919166"
   version="1.1"
   id="svg8"
   inkscape:version="1.0 (4035a4fb49, 2020-05-01)"
   sodipodi:docname="WoodworkingLogo.svg">
  <defs
     id="defs2" />
  <sodipodi:namedview
     id="base"
     pagecolor="#ffffff"
     bordercolor="#666666"
     borderopacity="1.0"
     inkscape:pageopacity="0.0"
     inkscape:pageshadow="2"
     inkscape:zoom="1.979899"
     inkscape:cx="-2.002463"
     inkscape:cy="41.795572"
     inkscape:document-units="mm"
     inkscape:current-layer="layer1"
     inkscape:document-rotation="0"
     showgrid="false"
     inkscape:snap-text-baseline="true"
     inkscape:window-width="1375"
     inkscape:window-height="1040"
     inkscape:window-x="52"
     inkscape:window-y="0"
     inkscape:window-maximized="0" />
  <metadata
     id="metadata5">
    <rdf:RDF>
      <cc:Work
         rdf:about="">
        <dc:format>image/svg+xml</dc:format>
        <dc:type
           rdf:resource="http://purl.org/dc/dcmitype/StillImage" />
        <dc:title></dc:title>
      </cc:Work>
    </rdf:RDF>
  </metadata>
  <g
     transform="translate(-90.604507,19.220448)"
     inkscape:label="Layer 1"
     inkscape:groupmode="layer"
     id="layer1">
    <path
       id="path847-6"
       d="m 106.84505,6.2775268 c -0.16924,-0.2768645 -0.37708,-1.2277716 -0.46185,-2.1131217 -0.0848,-0.8853475 -0.2406,-1.6097218 -0.34627,-1.6097218 -0.10567,0 -0.27147,0.547266 -0.36846,1.2161448 -0.097,0.6688848 -0.30014,1.5549328 -0.45148,1.9689995 -0.23456,0.6418059 -0.39896,0.7523504 -1.11452,0.7494332 -0.46166,-0.00184 -1.61328,-0.1676517 -2.55917,-0.3683647 C 100.59742,5.9201761 99.110042,5.724113 98.23802,5.6851866 96.760071,5.6192602 96.589592,5.5514077 95.724483,4.6854354 95.214055,4.174491 94.565307,3.7203449 94.282824,3.6762277 93.690481,3.5837031 92.895966,1.5588159 92.774729,-0.16728038 c -0.06794,-0.96723542 0.0057,-1.10541122 0.964043,-1.80985862 0.570677,-0.4194686 1.131406,-0.7119095 1.246063,-0.6498695 0.114658,0.062074 0.208468,0.9354437 0.208468,1.94090589 0,2.47031401 0.414576,4.05483051 1.202979,4.59778291 0.374118,0.2576548 1.307788,0.5003742 2.293678,0.5962625 0.91449,0.088952 2.40412,0.3233694 3.31029,0.5209393 1.59783,0.3483758 2.45347,0.3071057 2.45347,-0.1183348 0,-0.1137384 -0.2873,-0.1587128 -0.63844,-0.099939 -0.35114,0.058747 -1.47597,-0.059973 -2.49962,-0.2637764 -1.02366,-0.2038377 -2.317209,-0.3706148 -2.87457,-0.3706148 -1.191109,0 -2.112161,-0.4988334 -2.50254,-1.3553528 -0.153824,-0.3375098 -0.354669,-1.7603044 -0.446318,-3.1617688 -0.166637,-2.5481194 -0.166637,-2.5481194 -1.387768,-2.4742013 -1.048904,0.063475 -1.241272,0.00613 -1.363912,-0.4041007 -0.137668,-0.4609174 -0.04899,-0.4767021 2.477903,-0.4410773 1.441376,0.020312 2.620684,0.073281 2.620684,0.1176957 0,0.044389 -0.135718,0.2709985 -0.301598,0.5035515 -0.227812,0.3193813 -0.22293,0.5311162 0.02,0.8655284 0.310431,0.4273912 0.31609,0.4275488 0.163301,0.00438 -0.087,-0.2409088 0.0413,-0.7046707 0.285179,-1.030572 0.337499,-0.4509619 0.36337,-0.6159179 0.108259,-0.690371 -0.668898,-0.1952042 -1.16767,-0.9723826 -1.76349,-2.7478159 -0.81216,-2.4201295 -0.80709,-3.4128599 0.02109,-4.1379799 0.386152,-0.338089 0.955591,-0.568595 1.404641,-0.568595 0.415359,0 0.986319,-0.161761 1.268791,-0.359461 0.493099,-0.345129 0.487199,-0.352938 -0.14787,-0.195888 -0.363802,0.08997 -1.051782,0.241415 -1.52885,0.336548 -1.167672,0.232853 -1.590987,0.579785 -1.92573,1.5782497 -0.241239,0.7195606 -0.165542,1.1700663 0.523489,3.11556 0.443031,1.250894 0.874069,2.3714849 0.957871,2.4902057 0.262808,0.3722967 -0.472342,0.2086356 -2.524694,-0.5620569 -1.499195,-0.5629649 -1.985714,-0.8563154 -1.989852,-1.1997805 -0.003,-0.2500379 -0.257508,-0.8016937 -0.565547,-1.2258971 -0.828643,-1.1411489 -1.508202,-4.6619849 -1.134398,-5.8773769 0.598985,-1.947551 1.222332,-2.33727 4.351255,-2.720431 1.018646,-0.124743 2.214184,-0.291486 2.656756,-0.370553 0.781068,-0.139531 0.817178,-0.107523 1.231648,1.091602 0.23485,0.679436 0.502671,1.652301 0.595151,2.16193 0.0925,0.509621 0.307639,1.236107 0.478119,1.614417 0.30997,0.687832 0.30997,0.687832 0.46868,0.115822 0.15486,-0.558098 0.21096,-0.570162 2.30684,-0.496181 1.73075,0.06111 2.38955,-0.01769 3.39066,-0.405382 1.57802,-0.611136 1.81641,-0.603799 2.32175,0.07144 0.22747,0.303953 0.94466,0.777729 1.59374,1.052826 1.42202,0.602696 2.50391,1.5069381 2.72476,2.2773399 0.0894,0.3119562 0.0998,1.2598602 0.0231,2.1064582 -0.0822,0.906648 -0.0533,1.3012537 0.0703,0.9601517 0.34733,-0.958813 0.28699,-2.9931969 -0.10855,-3.6599473 -0.41215,-0.6947485 -1.36199,-1.3661905 -2.94432,-2.0813385 -0.57762,-0.261062 -1.20006,-0.691807 -1.38319,-0.95722 -0.41917,-0.607468 -1.12014,-0.611084 -2.45987,-0.01269 -0.86814,0.387767 -1.46551,0.458605 -3.41863,0.405391 -2.36669,-0.06444 -2.36669,-0.06444 -2.64168,-1.176213 -0.151238,-0.611452 -0.274978,-1.7111 -0.274978,-2.443671 0,-1.303548 0.0191,-1.33799 0.896368,-1.61573 0.493,-0.156079 1.43836,-0.646105 2.10079,-1.088941 1.19054,-0.795889 1.23511,-0.805169 3.86613,-0.805169 2.48532,0 2.66171,0.03073 2.66171,0.463297 0,0.487269 0.41678,0.591928 1.02147,0.256491 0.53604,-0.297351 1.29191,-0.04544 1.4498,0.483171 0.0764,0.255853 0.26356,0.397756 0.41587,0.315344 0.25722,-0.139181 0.66689,-6.95e-4 1.58213,0.534818 0.30412,0.177949 0.26644,0.340584 -0.21646,0.934342 -0.66886,0.822399 -0.62049,0.848183 0.6911,0.368382 0.52699,-0.19278 0.98587,-0.323083 1.01973,-0.289559 0.0339,0.03353 0.61921,1.130257 1.30078,2.437184 1.21252,2.325047 1.24545,2.449782 1.52878,5.7911715 0.39061,4.6066099 0.34875,5.6070257 -0.28725,6.8658352 -0.65357,1.2935754 -1.11716,1.48599463 -2.34505,0.97333691 -1.14798,-0.4792848 -1.3465,-0.33997176 -0.88774,0.62293864 0.77116,1.61861965 0.68054,2.28398575 -0.46646,3.42482645 -1.23254,1.2259348 -3.84707,2.4663488 -5.63999,2.6757811 -1.08224,0.1264166 -1.26717,0.083174 -1.53788,-0.3596883 z m 2.50819,-0.8640926 c 1.83128,-1.0705796 4.89006,-3.5785759 4.89006,-4.0095226 0,-0.2277997 -0.18557,-0.80302268 -0.41237,-1.27827047 -0.22681,-0.47524866 -0.34664,-0.92164644 -0.26629,-0.9919863 0.0803,-0.070304 0.60715,-0.007004 1.17067,0.14085307 0.56353,0.14782043 1.09675,0.26876602 1.18494,0.26876602 0.23621,0 0.90598,-2.25490982 1.06649,-3.59052932 0.11071,-0.9211903 0.0902,-1.0160079 -0.10033,-0.4632961 -0.13173,0.3822154 -0.30896,1.1760119 -0.39384,1.7639833 -0.22032,1.5263131 -0.60289,1.90066546 -1.74983,1.7122902 -1.40153,-0.2302082 -1.66757,-0.4315253 -1.32051,-0.999288 0.16055,-0.2626392 0.29191,-1.0763686 0.29191,-1.8082924 0,-0.7392501 0.26007,-2.0377547 0.5851,-2.9213101 0.58511,-1.5905488 0.58511,-1.5905488 -0.0423,-3.2039249 -0.34505,-0.8873626 -0.77075,-1.7175706 -0.946,-1.8449056 -0.17524,-0.127335 -1.07895,-0.447476 -2.00825,-0.711436 -0.9293,-0.263959 -2.18708,-0.732045 -2.79508,-1.040201 -1.26533,-0.641298 -1.93091,-0.694827 -2.94286,-0.236669 -0.39311,0.177974 -1.4008,0.39864 -2.23932,0.490367 -0.83851,0.09172 -1.58845,0.257262 -1.66652,0.367857 -0.21855,0.309601 2.80562,-0.217145 4.33469,-0.75501 0.81915,-0.288141 0.9799,-0.260177 2.38125,0.414242 0.82653,0.397791 2.19198,0.896564 3.03433,1.108395 1.7002,0.427558 2.2519,0.978801 2.8493,2.8468815 0.29792,0.9316282 0.27193,1.2166604 -0.23718,2.6006242 -0.31806,0.8646091 -0.57358,2.1637879 -0.57583,2.9277713 -0.005,1.6600149 -0.23828,2.0634949 -1.06128,1.8348021 -0.4501,-0.1250762 -0.56787,-0.087464 -0.46621,0.1489438 0.51203,1.19076347 0.49263,1.259481 -0.43888,1.5543908 -0.5026,0.15911634 -1.23314,0.62320305 -1.62343,1.03130661 -0.70305,0.73514399 -1.90715,1.54829639 -2.29702,1.55123809 -0.21723,0.00184 -1.25025,-1.38655259 -1.25189,-1.68231952 -5.3e-4,-0.0979799 0.29034,-0.11413319 0.64641,-0.0358962 0.84996,0.18677478 2.34148,-0.25788072 3.34508,-0.99722889 0.66325,-0.4886178 0.7908,-0.73865469 0.72843,-1.42788829 -0.0706,-0.7800326 -0.0278,-0.8326511 0.64444,-0.7919413 0.65016,0.039398 0.71657,-0.028104 0.68403,-0.6949412 -0.0266,-0.5449538 -0.0661,-0.6019254 -0.15069,-0.2173452 -0.0631,0.2866616 -0.29544,0.5212037 -0.51639,0.5212037 -0.32528,0 -0.3665,-0.1873605 -0.21658,-0.9845024 0.10183,-0.5414701 0.35042,-1.3360099 0.55242,-1.7656346 0.202,-0.4296334 0.36727,-1.2455192 0.36727,-1.8130893 0,-0.8317055 -0.15006,-1.1633248 -0.77339,-1.7090613 -0.67171,-0.5880931 -0.96933,-0.6771244 -2.26348,-0.6771244 -0.8921,0 -1.93551,-0.1754705 -2.60004,-0.4372595 -0.61048,-0.240495 -1.65526,-0.444814 -2.32173,-0.454051 -0.66648,-0.0092 -1.53748,-0.125199 -1.93556,-0.257708 -0.75875,-0.252569 -1.74746,0.01348 -1.74746,0.470204 0,0.143112 -0.49355,0.174158 -1.292827,0.08134 -1.100061,-0.127755 -1.376201,-0.07713 -1.852081,0.339499 -0.31795,0.2783616 -0.54896,0.7645095 -0.5354,1.1266669 0.0232,0.6187195 0.0311,0.615129 0.27483,-0.1248749 0.323901,-0.983336 1.203489,-1.359213 2.356911,-1.007177 0.924317,0.2821093 1.313147,0.184568 1.313147,-0.329413 0,-0.405224 0.33144,-0.41256 3.04271,-0.06741 2.71342,0.345452 3.12149,0.660174 0.85597,0.660174 -1.49261,0 -1.80688,0.071179 -2.0466,0.463297 -0.29692,0.4857365 -1.43245,0.6386892 -1.71979,0.2316441 -0.25361,-0.3592681 -1.899319,-0.2730122 -2.351957,0.1232727 -0.222951,0.1952052 -0.48427,0.7231074 -0.5807,1.173121 -0.148442,0.6927961 -0.0399,0.9833371 0.70829,1.89545 0.727009,0.8863299 0.902441,1.336101 0.98984,2.5378759 0.0896,1.2318875 0.212487,1.5338189 0.784777,1.9279405 0.601,0.4138907 0.9225,0.4505494 2.81311,0.320755 1.30336,-0.089487 2.41815,-0.049904 2.86282,0.1016466 0.68444,0.2332734 0.76979,0.18929533 1.41852,-0.7307839 0.37964,-0.5384425 1.33184,-1.5064309 2.11601,-2.1510929 2.05601,-1.6902544 1.84757,-2.825202 -0.80164,-4.3647467 -0.79941,-0.4645569 -1.51937,-0.9380186 -1.59992,-1.0521334 -0.0814,-0.1153318 0.47155,-0.1760926 1.24511,-0.1368082 0.76537,0.038873 1.6338,0.082649 1.92984,0.097261 0.66423,0.032832 1.44611,1.1401246 1.44611,2.0479816 0,0.3717171 -0.16867,1.1374455 -0.37482,1.7016098 -0.20615,0.564174 -0.44654,1.3124332 -0.53421,1.6627973 -0.12166,0.4862618 -0.31474,0.6370275 -0.8158,0.6370275 -0.70849,0 -0.83168,0.2171893 -0.35829,0.63165 0.48214,0.4221215 0.0337,1.384707 -0.95168,2.04271971 -0.83147,0.55524372 -0.9982,0.58605227 -1.84588,0.34112744 -1.0307,-0.29781652 -1.77314,-0.16381786 -2.80964,0.50710783 -0.68227,0.44162796 -0.70594,0.44111141 -2.38637,-0.05244343 -0.9335,-0.27418458 -1.89475,-0.65345827 -2.136107,-0.84284121 -0.72865,-0.57170514 -1.12508,-1.64749404 -0.821899,-2.23039454 0.281998,-0.5421722 -0.190932,-1.618497 -1.335993,-3.0405834 -0.298788,-0.3710771 -0.626739,-1.0486497 -0.728768,-1.5057034 -0.174321,-0.7808537 -0.187351,-0.7898812 -0.21595,-0.1495653 -0.01871,0.4193995 0.38455,1.2930239 1.048631,2.2716953 0.913998,1.3469626 1.054478,1.7210795 0.918347,2.445762 -0.249499,1.328195 0.520481,2.36525287 2.197659,2.95993772 1.80126,0.63869006 2.01973,0.89079324 0.60769,0.70125271 -1.896198,-0.254538 -2.930018,-0.74299558 -3.345787,-1.58082183 -0.207861,-0.4188382 -0.382582,-0.6260467 -0.38827,-0.4604612 -0.006,0.1655864 0.1657,0.59914124 0.380881,0.96346198 0.491498,0.83212489 1.971826,1.31894088 4.618956,1.51895172 1.8481,0.139644 1.99625,0.1159271 2.44151,-0.39081387 0.44563,-0.50716824 0.47432,-0.51172968 0.47892,-0.0761699 0.003,0.25481203 -0.24025,0.81535177 -0.53988,1.24564267 -0.52285,0.7508516 -0.59352,0.7764946 -1.75573,0.6370248 -0.66603,-0.079935 -1.90208,-0.1453164 -2.74678,-0.1453164 -2.239898,0 -2.832147,-0.5150865 -3.188167,-2.77277174 -0.247981,-1.57248686 -0.656641,-2.72141906 -0.894059,-2.51356186 -0.051,0.044651 0.0736,0.6529942 0.276989,1.3518156 0.20337,0.69881874 0.441259,1.67312836 0.52863,2.16513266 0.284379,1.60141574 0.92138,1.91102544 4.236607,2.05916104 1.59244,0.071179 3.09075,0.037822 3.32958,-0.074069 0.23882,-0.1119093 0.50972,-0.4668174 0.60199,-0.788694 0.22232,-0.77550524 0.58242,-0.7390487 1.08373,0.1097127 0.22576,0.3822154 0.5343,0.6949411 0.68565,0.6949411 0.50753,0 1.42273,-0.5105845 2.48935,-1.3887887 0.58209,-0.47925675 1.41552,-1.01889001 1.85209,-1.19918509 0.64211,-0.26519478 0.78429,-0.458648 0.74423,-1.01265721 -0.043,-0.5943618 0.0515,-0.5165284 0.71512,0.58922248 0.42055,0.70072739 0.77026,1.44060788 0.77712,1.64417512 0.0237,0.7039055 -4.90198,4.3786402 -5.86925,4.3786402 -0.19934,0 -0.50531,-0.1250841 -0.67993,-0.2779764 -0.23171,-0.2028554 -0.3175,-0.2059644 -0.3175,-0.011469 0,0.2363982 0.69942,0.7270472 1.06306,0.7457386 0.0754,0.0035 0.61114,-0.2701327 1.19062,-0.608905 z m -5.09481,-4.87187027 c 0.246,-0.21537878 0.52156,-0.32655972 0.61236,-0.24706371 0.2604,0.22798533 -0.13935,0.63865591 -0.62167,0.63865591 -0.40388,0 -0.40316,-0.030468 0.009,-0.3915922 z m 2.11352,-0.31057192 c -1.00415,-0.35337766 -0.66388,-0.523726 0.72413,-0.36251542 1.27745,0.14836237 1.35744,0.12257141 2.51354,-0.81042172 0.70632,-0.57002327 1.1941,-0.82738127 1.1941,-0.63003207 0,0.5111273 -1.38775,1.56073135 -2.39942,1.81475366 -1.06293,0.26689153 -1.24344,0.26584967 -2.03235,-0.0118107 z m -5.59484,-2.05347191 c -0.42844,-0.3751062 -0.55672,-0.7756471 -0.55672,-1.7382056 0,-1.0455504 -0.15195,-1.448463 -0.92605,-2.4555694 -1.043059,-1.3570416 -1.091751,-1.5956198 -0.52237,-2.5596255 0.30697,-0.5197065 0.58846,-0.6834368 1.175009,-0.6834368 0.424241,0 0.844931,0.1042389 0.934861,0.2316528 0.26374,0.37361 1.45355,0.2664109 2.1174,-0.1907662 0.45386,-0.3125681 1.02283,-0.4138829 2.18793,-0.3896136 1.44372,0.030118 1.72603,0.1290862 3.39712,1.1913423 2.15271,1.3684058 2.71338,2.1514308 2.19371,3.0637285 -0.34792,0.6107769 -0.34792,0.6107769 -0.44484,-0.084137 -0.11623,-0.8333524 -1.86799,-2.5033306 -3.31032,-3.1557803 -1.00274,-0.4536068 -1.00274,-0.4536068 -2.2977,0.1634659 -1.36099,0.6485308 -2.00623,0.6609352 -3.65159,0.070216 -1.82941,-0.6568132 -2.54375,0.8877911 -1.13059,2.4446588 0.6411,0.7063053 0.80659,1.1123619 0.80659,1.9791065 0,1.3207935 0.56108,1.8691924 1.87292,1.8305909 0.90521,-0.026616 0.90521,-0.026616 -0.11454,-0.19911 -1.08421,-0.1833699 -1.48569,-0.5292513 -1.48569,-1.2799611 0,-0.3598477 0.0525,-0.3906563 0.23525,-0.1379648 0.23507,0.3250705 2.57867,0.7679085 4.17258,0.7884393 1.01624,0.013045 2.87367,-1.048099 3.55778,-2.0326172 0.46809,-0.6736415 0.46592,-0.698233 -0.11008,-1.2459998 -0.32318,-0.3073422 -0.97455,-0.7031272 -1.44749,-0.8795262 -0.47294,-0.1763991 -0.85989,-0.423567 -0.85989,-0.5492657 0,-0.4530088 -0.74259,-0.2155679 -1.18827,0.3799408 -0.4272,0.5708174 -0.53959,0.5979602 -1.81637,0.4385636 -2.568,-0.320579 -2.67503,-0.3041806 -2.77024,0.4245204 -0.0863,0.6608039 -0.0863,0.6608039 -0.72761,0.1333569 -0.695749,-0.5722629 -0.877981,-1.7715714 -0.29876,-1.9661733 0.188391,-0.0633 0.8582,0.044214 1.48848,0.2389117 1.528,0.4719988 2.36087,0.4450259 3.40093,-0.110167 0.47646,-0.2543367 1.14321,-0.4624303 1.48166,-0.4624303 1.14366,0 3.86976,2.0961534 3.86976,2.9755483 0,0.2007217 -0.83654,1.0674829 -1.85898,1.9261263 -1.82055,1.5289143 -1.88481,1.5595845 -3.10885,1.4836256 -1.00053,-0.062074 -1.06513,-0.04719 -0.32384,0.074857 0.92536,0.1522611 0.92506,0.1524887 -0.39687,0.3089776 -0.72761,0.086151 -1.69747,0.2249202 -2.15525,0.3084199 -0.64505,0.117651 -0.95761,0.042112 -1.38907,-0.3356125 z m 5.52869,0.207514 c -0.30878,-0.1747084 -0.31676,-0.2253395 -0.0359,-0.2280983 0.19851,-0.00184 0.83199,-0.4465737 1.40774,-0.9880465 1.08213,-1.017716 1.08837,-0.9067197 0.0326,0.57912 -0.65975,0.9284763 -0.78714,0.9862604 -1.40437,0.6370248 z m -2.51354,-1.8531696 c -0.29104,-0.1095017 -0.91072,-0.2064109 -1.37707,-0.2153691 -0.77126,-0.014805 -0.86195,-0.094808 -1.00327,-0.8849606 -0.0854,-0.4777702 -0.206,-1.1512979 -0.2679,-1.4967232 -0.12927,-0.7213301 0.20179,-0.9974417 0.82804,-0.6905977 0.29572,0.1448883 0.33832,0.2633273 0.13439,0.3736704 -0.46725,0.2528307 -0.35513,1.6409085 0.16446,2.0361105 0.25466,0.1936983 1.03717,0.4173744 1.73892,0.497063 1.68238,0.1910394 2.54609,0.6021732 1.23764,0.5891271 -0.50932,-0.00525 -1.16417,-0.098828 -1.45521,-0.2083204 z m 1.71979,-0.4632961 c -0.30816,-0.1743609 -0.23074,-0.2253509 0.34635,-0.2280983 0.42891,-0.00184 0.67406,0.094415 0.57969,0.2280983 -0.20303,0.287615 -0.4177,0.287615 -0.92604,0 z m -3.01483,-0.5326309 c -0.51066,-0.3269161 -0.51537,-1.5683545 -0.007,-1.7143039 0.17739,-0.050867 0.24257,0.1767142 0.1717,0.5995002 -0.0942,0.5621708 0.0179,0.7441897 0.64009,1.0393797 0.64297,0.3050212 0.67391,0.3592244 0.2096,0.3671303 -0.29961,0.00525 -0.75631,-0.1261619 -1.01489,-0.2917063 z m 5.46223,-0.068728 c 0.25466,-0.2626462 0.46302,-0.7247262 0.46302,-1.0268406 0,-0.3972393 0.08,-0.4792314 0.28909,-0.2961863 0.34043,0.2980511 0.003,0.9726724 -0.73767,1.4761363 -0.45716,0.3106341 -0.45778,0.3041299 -0.0144,-0.1531094 z m -4.29714,-0.1607352 c -0.36251,-0.1605802 -0.69866,-0.471772 -0.747,-0.6915266 -0.0759,-0.3451916 0.14584,-0.3995682 1.62966,-0.3995682 0.94465,0 1.90589,0.0633 2.13607,0.140608 0.54134,0.1818701 0.54134,0.9267936 0,1.1086646 -0.70135,0.2356294 -2.32131,0.1507464 -3.01873,-0.1581778 z m 2.31289,-0.3382391 c 0.0744,-0.1957121 -0.19716,-0.2895595 -0.83797,-0.2895595 -0.98271,0 -1.29647,0.3477997 -0.48507,0.5376808 0.70614,0.1652459 1.20114,0.072405 1.32304,-0.2481213 z m 1.31044,-0.4292473 c -0.40614,-0.4743898 -0.7144,-0.5594646 -2.11667,-0.5841533 -1.64129,-0.028892 -1.64129,-0.028892 -0.279,-0.2034884 0.74926,-0.096027 1.47941,-0.2379662 1.62255,-0.3154214 0.33683,-0.1822579 1.64537,0.7164701 1.64537,1.130071 0,0.5569169 -0.38246,0.5450702 -0.87225,-0.027053 z m -1.70182,-1.4963721 c 0.339,-0.475247 0.85716,-0.5878489 1.10293,-0.2396805 0.0812,0.1149894 -0.2058,0.3169369 -0.63772,0.4487625 -0.7374,0.2250611 -0.76578,0.2123049 -0.46521,-0.209082 z m 3.72969,10.3524214 c 1.73936,-0.974152 3.27235,-2.1420304 3.65331,-2.78322271 0.15994,-0.26918801 -0.29109,0.0345829 -1.00229,0.67502221 -0.71121,0.6404507 -1.97771,1.5013276 -2.81446,1.9130663 -1.36783,0.673069 -1.79531,0.976304 -1.37635,0.976304 0.0798,0 0.77266,-0.3515294 1.53979,-0.7811698 z m -4.33062,0.015146 c 0,-0.1786141 -0.0828,-0.1807398 -0.28093,-0.007 -0.19817,0.1735081 -0.58479,0.1542905 -1.31253,-0.065226 C 102.61599,3.1046584 102.01511,3.083681 100.98841,3.2541702 99.211271,3.5492437 99.429431,3.5839903 98.05501,2.7869394 96.857241,2.0923293 96.857241,2.0923293 96.7044,0.41255484 96.6203,-0.51132241 96.373401,-1.6841816 96.155662,-2.1938118 c -0.523441,-1.2250847 -0.531186,-0.8612551 -0.0185,0.870842 0.228053,0.77055065 0.376881,1.86254631 0.330722,2.4266581 -0.0798,0.9756947 -0.0277,1.0614156 1.069689,1.7596671 1.08264,0.6888554 1.277972,0.7307051 3.174997,0.6803007 1.11176,-0.029505 2.37858,0.032657 2.81514,0.1381661 0.8881,0.2146854 1.45521,0.108923 1.45521,-0.2713934 z m 10.25664,-8.4211969 c -0.0386,-1.3041955 -0.15025,-2.1942025 -0.2481,-1.9778002 -0.0978,0.2164092 -0.11174,1.2343204 -0.0309,2.2620357 0.0963,1.2238055 0.0386,2.063086 -0.16741,2.4322895 -0.29921,0.536351 -0.2943,0.5416557 0.10103,0.1092312 0.32863,-0.3594538 0.40084,-0.9503389 0.34533,-2.8257562 z m -2.66757,0.1095875 c -0.0845,-0.1847935 -0.14716,-0.12991 -0.15985,0.1399521 -0.0115,0.2441912 0.051,0.3810064 0.13896,0.3040319 0.0879,-0.076958 0.0973,-0.2767692 0.0209,-0.443984 z M 94.651368,-6.3033324 C 94.005123,-7.1890651 93.71578,-7.9015796 93.592087,-8.9118108 93.42191,-10.301693 93.42191,-10.301693 93.381566,-9.0652809 c -0.03355,1.0281722 0.120751,1.4886334 0.916115,2.7338357 0.526055,0.823572 1.020887,1.4409949 1.099627,1.3720567 0.07874,-0.068903 -0.256935,-0.6737107 -0.74594,-1.3439439 z m 0.651378,-1.3799889 c -0.394206,-0.8030761 -0.768903,-1.9952317 -0.83266,-2.6492347 -0.101513,-1.041277 -0.04,-1.23565 0.49481,-1.563619 0.353145,-0.216559 1.171763,-0.381383 1.940926,-0.390805 0.73161,-0.0089 1.568317,-0.114272 1.859359,-0.234042 0.353981,-0.145678 -0.1251,-0.172329 -1.44707,-0.08055 -2.384629,0.165613 -2.791814,0.335122 -3.161609,1.316129 -0.311447,0.826215 -0.225685,1.188295 0.878943,3.71085 0.377865,0.8628993 0.704863,1.8010676 0.726668,2.0848233 0.03223,0.4193811 0.06001,0.3990332 0.148507,-0.1087654 0.0623,-0.3576046 -0.197577,-1.24896 -0.607874,-2.0848233 z m 21.008684,-3.3887397 c -0.43704,-1.210003 -0.84069,-1.861396 -1.40667,-2.270008 -1.99962,-1.44363 -3.59265,-2.403336 -3.98932,-2.403336 -0.23816,0 -1.24667,-0.389579 -2.24113,-0.865728 -1.8081,-0.865728 -1.8081,-0.865728 -3.34508,-0.190451 -0.84533,0.371403 -2.07275,0.747052 -2.72759,0.834778 -1.19063,0.159502 -1.19063,0.159502 -0.1323,0.188184 0.63301,0.01716 1.62713,-0.203138 2.47367,-0.548161 1.80177,-0.734357 2.11416,-0.724945 3.91858,0.118081 0.8181,0.382215 1.6903,0.694941 1.93822,0.694941 0.24792,0 0.79671,0.266586 1.21953,0.592418 0.42281,0.325832 1.25428,0.846423 1.8477,1.156881 1.15752,0.605577 1.36363,0.880778 2.20952,2.950245 0.37785,0.9244229 0.56488,2.0032167 0.6024,3.4747058 0.0544,2.1340439 0.0544,2.1340439 0.14989,0.049204 0.0778,-1.6982049 -0.0182,-2.3995111 -0.51742,-3.7817758 z m -23.52144,2.6371002 c -0.840129,-2.0924762 -0.857449,-2.2081222 -0.525333,-3.5074322 0.231746,-0.906632 0.593005,-1.562105 1.110811,-2.015456 0.707527,-0.619455 0.869399,-0.659563 2.075698,-0.514305 1.430893,0.172302 2.917135,-0.02066 2.917135,-0.37874 0,-0.124796 -0.13643,-0.153084 -0.303192,-0.06286 -0.166748,0.09023 -1.157959,0.149835 -2.20268,0.132448 -1.750039,-0.02915 -1.954376,0.01856 -2.596951,0.605752 -0.761439,0.69583 -1.511758,2.311341 -1.511758,3.254946 0,0.683507 1.67182,5.1589281 1.812417,4.8517969 0.05094,-0.111286 -0.298323,-1.1760627 -0.776147,-2.3661608 z m 22.51493,-1.2563397 c -0.84683,-2.9444225 -1.74651,-3.8068945 -4.6029,-4.4125505 -0.71079,-0.150711 -1.74784,-0.477472 -2.30457,-0.726135 -1.21125,-0.541017 -1.878,-0.56055 -3.88158,-0.113739 -0.83455,0.186109 -1.81502,0.39006 -2.17882,0.453229 -0.3638,0.06312 -0.89958,0.281495 -1.19062,0.485167 -0.52448,0.367025 -0.52427,0.368251 0.0233,0.137798 0.30387,-0.127887 1.71543,-0.466397 3.1368,-0.752253 2.58432,-0.519741 2.58432,-0.519741 3.68085,-0.02592 0.60308,0.271628 1.93531,0.706681 2.96051,0.966789 1.23987,0.314564 2.1094,0.697183 2.59696,1.142732 0.76125,0.695668 1.7302,3.009929 1.79279,4.2819859 0.0292,0.5937831 0.0585,0.6280508 0.15514,0.1812564 0.0655,-0.3030241 -0.019,-1.0313057 -0.18788,-1.6184086 z M 94.436764,-12.661201 c 0.451562,-0.366273 1.173181,-0.566258 2.608625,-0.722966 1.805432,-0.197097 1.865083,-0.219203 0.661451,-0.245225 -0.727599,-0.01576 -1.76398,0.07862 -2.303063,0.209731 -1.027322,0.249803 -2.074355,1.179864 -2.045785,1.81723 0.01262,0.281383 0.07103,0.259284 0.235648,-0.08914 0.120383,-0.254811 0.499788,-0.69115 0.843124,-0.969626 z"
       style="fill:#000000;stroke-width:0.247568"
       sodipodi:nodetypes="ccssscscsssscsssssccsssccssscscssssssssssssssssscssccsscccsscscsssssssssssscssssssscccssscsscssssscssssssssssscsssscsssscscssssssscssssccsscscssscssssssssscssssssssscssscssssscssscsssssssccsssssssssssccccsscccsssscccsssscscssssssssccsccssssssccssssssscssccccssccsscssssscsscssccccccccsscccscscsscssccssssccscssssssssccscsccccsccccccccsccsscsssssscscsscscsssccccsssssssssssssscccssssscssscccssscssscssscccssccsss" />
    <text
       xml:space="preserve"
       style="font-style:normal;font-weight:normal;font-size:9.87778px;line-height:0.75;font-family:sans-serif;fill:#ffffff;fill-opacity:1;stroke:none;stroke-width:0.264583"
       x="98.335838"
       y="-6.3582492"
       id="text866"><tspan
         sodipodi:role="line"
         id="tspan864"
         x="98.335838"
         y="-6.3582492"
         style="font-style:normal;font-variant:normal;font-weight:600;font-stretch:normal;font-size:9.87778px;font-family:Quicksand;-inkscape-font-specification:'Quicksand Semi-Bold';fill:#ffffff;stroke-width:0.264583">AD</tspan><tspan
         id="tspan842"
         sodipodi:role="line"
         x="98.335838"
         y="1.447512"
         style="font-style:normal;font-variant:normal;font-weight:600;font-stretch:normal;font-size:9.87778px;font-family:Quicksand;-inkscape-font-specification:'Quicksand Semi-Bold';fill:#ffffff;stroke-width:0.264583">KG</tspan></text>
  </g>
</svg>
